# xmcd
#
# Track frame offsets: 
#        150
#        13876
#        27234
#        39283
#        52937
#        69489
#        82081
#        94387
#        107038
#        119724
#        131979
#        143609
#        155923
#        168588
#        180665
#        192526
#        204760
#        216478
#        226492
#        237711
#
# Disc length: 3320 seconds
#
# Revision: 0
# Processed by: cddbd v1.5.2PL0 Copyright (c) Steve Scherf et al.
# Submitted via: ExactAudioCopy v0.99pb3
#
DISCID=300cf614
DTITLE=Various Artist - Ultimate Bluegrass Hits - Bluegrass Roots
DYEAR=2006
DGENRE=Bluegrass
TTITLE0=Blue Moon of Kentucky
TTITLE1=I'm a Man of Constant Sorrow
TTITLE2=Foggy Mountain Breakdown
TTITLE3=Will the Circle Be Unbroken
TTITLE4=New River Train
TTITLE5=Going Back to the Blue Ridge Mountains
TTITLE6=We'll Meet Again Sweetheart
TTITLE7=Cumberland Mountain Deer Race
TTITLE8=Banjo Pickin' Girl
TTITLE9=Uncle Pen
TTITLE10=Cabin Home in Caroline
TTITLE11=Are You From Dixie
TTITLE12=The Paris Waltz
TTITLE13=I'm So Lonesome Without You
TTITLE14=I'm Going to Make Heaven My Home
TTITLE15=John Henry
TTITLE16=Intoxicated Rat
TTITLE17=The Great Speckled Bird
TTITLE18=Little Birdie
TTITLE19=New Mule Skinner Blues
EXTD=
EXTT0=
EXTT1=
EXTT2=
EXTT3=
EXTT4=
EXTT5=
EXTT6=
EXTT7=
EXTT8=
EXTT9=
EXTT10=
EXTT11=
EXTT12=
EXTT13=
EXTT14=
EXTT15=
EXTT16=
EXTT17=
EXTT18=
EXTT19=
PLAYORDER=
